<?xml version="1.0" encoding="UTF-8"?>
<svg version="1.1" viewBox="0 0 1898 2048" width="481" height="519" xmlns="http://www.w3.org/2000/svg">
<path transform="translate(413,140)" d="m0 0h1073l19 1 23 3 35 9 19 7 16 7 17 9 19 12 14 10 13 11 17 16 7 7 7 8 13 17 10 15 9 15 8 16 10 24 6 20 6 25 3 30 1 88v418l-1 582-3 32-9 36-6 18-8 18-11 21-12 19-12 16-12 14-20 20-11 9-17 13-16 10-16 9-27 12-24 8-23 6-24 3-11 1-46 1h-1021l-32-1-25-3-32-8-24-9-27-12-21-13-15-11-11-9-10-9-8-7-14-15-9-11-13-18-9-15-10-18-8-18-6-16-8-30-4-22-2-28v-1073l2-27 4-22 9-32 11-27 10-19 10-16 12-17 11-13 9-10 14-14 8-7 16-13 19-12 19-11 17-8 14-6 21-6 23-6 24-3z" fill="#D9215D"/>
<path transform="translate(453,395)" d="m0 0h29l27 5 28 8 26 8 17 6 25 11 22 10 19 10 30 14 22 12 23 13 14 9 12 7 17 8 13 9 26 17 15 10 8 6 11-1 43-6 36-3 30-1h43l29 1 46 5 36 6h8l14-10 10-7 19-12 21-13 10-6 19-10 17-10 16-10 26-14 33-16 26-12 16-8 16-7 28-10 30-9 22-6 25-4h28l16 4 11 5 6 4 8 7 10 15 6 13 6 17 5 19 4 24 3 31v76l-4 53-5 47-6 44-8 49-9 48 1 8 12 29 10 28 7 28 5 27 4 38v25l-2 25-4 29-6 28-9 31-5 2-50 6-25 5-9 1v2l52-1 16-1 6-1h9l-1 4-7 17-8 18-1 1h-66l25 5 32 4 3 1-1 5-10 18-7 11h-8l-33-7-17-3-2-1h-10l15 5 19 6 25 7 2 1-1 4-7 11-7 10-7 9-11 12-12 13-16 17-10 10-13 10-13 11-14 11-9 8-15 10-14 8-19 12-13 8-22 12-19 9-25 10-32 13-36 12-23 7-28 6-62 10-37 4-50 2h-30l-39-2-36-4-46-7-29-5-34-9-36-12-21-8-29-12-24-10-23-12-18-11-25-15-11-7-19-14-14-11-14-12-10-9-10-8-26-26-9-11-10-11-11-14-10-13-12-17-7-12 1-2 15-1 4-1-13-2-11-3-16-30-3-5v-3l9 1 31 7 28 4h3l-13-4-14-5-8-3-17-6-25-8-4-8-9-25-7-30-5-34-3-31v-38l4-35 5-32 5-21 9-25 10-24 8-15 2-7-9-48-8-51-5-38-5-48-3-38-1-21v-62l4-39 5-27 5-17 6-16 8-14 9-10 9-8 10-6 15-4z" fill="#FCFCFC"/>
<path transform="translate(1456,395)" d="m0 0h28l16 4 11 5 6 4 8 7 10 15 6 13 6 17 5 19 4 24 3 31v76l-4 53-5 47-6 44-8 49-10 53h-1l-1-10-5-5-10-17-8-13-8-12-12-17-14-19-14-15-7-8-31-31-10-8-13-11-11-9-15-12-17-11-14-8-15-10-25-14-27-14-17-6-22-10-9-3-14-6-43-14-33-9-5-1-2 5-13 16-7 9-6 7h-2l-2 4-41 41h-2v2l-8 7-9 8h-4l2-15 9-41 9-33 7-20h8l36 6h8l14-10 10-7 19-12 21-13 10-6 19-10 17-10 16-10 26-14 33-16 26-12 16-8 16-7 28-10 30-9 22-6z" fill="#DFDFDF"/>
<path transform="translate(453,395)" d="m0 0h29l27 5 28 8 26 8 17 6 25 11 22 10 19 10 30 14 22 12 23 13 14 9 12 7 17 8 13 9 26 17 15 10 8 6 11-1 28-4h7v2l4 1 4 10 6 18 12 53 4 18v7l-5-2-13-11-7-6v-2l-4-2-8-8v-2l-4-2-28-28-9-12-16-22-4-1-25 6-43 13-25 9-9 4-10 3-25 11-12 5-23 11-18 11-30 18-15 10-14 10-13 10-16 13-12 11-8 7-10 9-8 8-9 11-10 11-11 14-9 11-14 19-9 14-14 26-2 1-2 4-2-6-10-54-9-61-6-54-4-49-1-21v-62l4-39 5-27 5-17 6-16 8-14 9-10 9-8 10-6 15-4z" fill="#DFDEDF"/>
<path transform="translate(1212,975)" d="m0 0h18l15 2 16 5 8 3v2l5 1v2h3v2h3v2h3v2l5 2 9 7 9 10 8 13 7 15 3 12 1 8v24l-2 16-3 10-8 16-8 11-8 8-14 11-14 9-10 4-14 4-12 2h-15l-19-3-16-6-10-6-12-9-13-11-7-8v-3h-2v-3h-2l-8-18-3-9-2-7-1-10v-14l2-17 6-18 8-15 8-11 8-8 20-14 9-5 14-5z" fill="#232223"/>
<path transform="translate(682,975)" d="m0 0h25l13 3 10 3 15 8 3 1v2h3v2l6 2v2h3v2l5 2 7 7 8 13 8 16 4 10 3 12 1 7v19l-3 15-5 15-8 15-4 6-4 7-20 16-12 7-21 8-16 3h-17l-14-2-19-7-13-7-12-9-13-13-10-15-5-12-6-18-1-6v-23l3-16 7-17 5-10 10-14 10-10 13-9 13-7 14-5z" fill="#232223"/>
<path transform="translate(422,1227)" d="m0 0h14l-1 2 7 8 9 11 11 13 11 14 9 10 5 6 5 5 9 8v2l4 2v2l4 2 8 7v2h2v2l4 2 14 12 14 10 13 10 17 12 16 10 17 10 23 12 16 8 25 12 23 9 33 11 18 5 19 6 12 3 32 7 16 3 25 4 25 3 32 3 34 1h39l31-1 43-4 29-4 25-5 17-4 14-3 29-8 25-8 27-9 25-10 16-8 26-12 22-12 14-8 16-10 18-13 17-12 12-10 10-8 13-11 10-9 7-8h2l1-3 8-7 13-13 7-8 8-10 6-7 5-1 7 2-1 4-7 11-7 10-7 9-11 12-12 13-16 17-10 10-13 10-13 11-14 11-9 8-15 10-14 8-19 12-13 8-22 12-19 9-25 10-32 13-36 12-23 7-28 6-62 10-37 4-50 2h-30l-39-2-36-4-46-7-29-5-34-9-36-12-21-8-29-12-24-10-23-12-18-11-25-15-11-7-19-14-14-11-14-12-10-9-10-8-26-26-9-11-10-11-11-14-10-13-12-17-7-12z" fill="#E0DCDD"/>
<path transform="translate(1383,532)" d="m0 0h20l15 4 8 6 9 10 8 13 5 15 5 25 2 22 1 20v25l-4 63-1 7-4-1-32-32-10-8-13-11-11-9-15-12-17-11-14-8-15-10-25-14-27-14-17-6-24-11 1-3 16-8 23-12 16-8 21-8 31-12 23-7 18-4z" fill="#F78DB0"/>
<path transform="translate(532,532)" d="m0 0h19l23 4 31 9 28 11 24 10 16 8 22 12 9 5-1 3-29 13-19 8-23 11-18 11-30 18-15 10-14 10-13 10-16 13-12 11-8 7-10 9-9 9-3 1-1-2-2-29-1-29v-46l2-22 5-27 6-16 9-15 8-8 14-7z" fill="#F78DB0"/>
<path transform="translate(380,908)" d="m0 0 4 3 19 7 26 12 16 8 26 14 18 10 12 7 1 3-15 3-30 4-19 2-39 2h-29l-2 2-1 13v10l8 3 14 2 41 8 27 7 43 14 3 3-20 14-18 13-15 10-14 9-12 6-19 10-21 9-2 4 3 6 6 17 7 17 1 6-4-2-1-4-4 1-1 2-10-28-7-30-5-34-3-31v-38l4-35 5-32 5-21z" fill="#DFDEDF"/>
<path transform="translate(946,547)" d="m0 0h43l29 1 19 2v1l-13 1-1 10-6 23-8 26-13 32-12 26-9 20-8 18-3-1-8-16-13-27-11-26-8-21-9-31-7-26v-6l1-1-18-1v-1l25-2z" fill="#DFDEDF"/>
<path transform="translate(1564,999)" d="m0 0h1l1 10v25l-2 25-4 29-6 28-9 31-5 1 1-2-1-3v-9l3-13v-6l-17-8-19-10-16-9-22-14-19-13-16-11-7-5 1-3 18-5 21-6 29-8 32-7 21-4 15-1z" fill="#DFDEDF"/>
<path transform="translate(1303,1219)" d="m0 0h20l21 3 18 6 9 5 8 8 5 10-1 7-6 10-9 8-14 6-19 5-6 1h-29l-17-3-16-6-11-6-10-10-3-7 1-8 4-6 5-6 14-8 12-5 13-3z" fill="#F78DB0"/>
<path transform="translate(607,1219)" d="m0 0h22l20 3 17 6 9 6 8 7 4 8v9l-5 8-9 9-15 7-19 5-8 1h-27l-17-3-16-6-12-7-8-8-3-7v-8l4-8 8-7 17-9 15-4z" fill="#F78DB0"/>
<path transform="translate(1546,907)" d="m0 0 2 3 6 21 7 33 3 24v9l-2-4-1-10h-4-15l-28-1-52-5-30-4-2-1 1-4 18-10 22-12 39-20 26-11 10-3z" fill="#DFDEDF"/>
<path transform="translate(816,1288)" d="m0 0 4 2 4 27 5 12 8 10 11 9 11 7 13 5 9 2h17l16-4 10-4 14-11 9-9 8-15 4-16 2-10h9l2 2 2 16 5 15 7 10 7 7 12 9 12 6 14 4h19l16-4 10-5 12-9 9-8 7-11 5-14 4-21 1-1h7l1 1v16l-3 15-8 16-11 12-7 7-15 10-11 5-12 3-7 1h-13l-16-3-12-5-11-6-9-7-10-10-6-9-4-8-3 3-6 9-13 14-14 10-10 6-12 4-13 2h-12l-16-3-15-6-14-9-13-13-6-9-7-17-3-11-1-15 3-3z" fill="#D9215D"/>
<path transform="translate(1260,1007)" d="m0 0h14l11 4 9 7 2 4h2l4 7 3 9v12l-4 12-6 8-8 7-9 4-10 2-13-2-8-4-8-7-7-11-3-9v-11l4-12 8-10 10-7z" fill="#FCF9FA"/>
<path transform="translate(728,1007)" d="m0 0h17l11 4 8 6 4 4v2h2l5 11v21l-6 12-5 6-10 6-7 3-13 1-9-2-9-6-8-8-6-11-2-7v-9l3-10 6-9 7-7 7-5z" fill="#FBF8F9"/>
<path transform="translate(306,1149)" d="m0 0h9l63 15 18 4 11 4 17 5 13 5 17 6 11 4 6 2v1l-12-1-26-4-37-9-64-20-24-10z" fill="#272224"/>
<path transform="translate(1427,1232)" d="m0 0h11l13 3 26 5 13 3 13 2 39 12 40 13 12 5v2l-12-1-36-8-39-10-17-5-28-8-19-6-15-5z" fill="#252224"/>
<path transform="translate(1454,1199)" d="m0 0h48l23 1 56 7 26 5 1 2-6 1h-20l-65-4-26-4-15-2-20-4z" fill="#252224"/>
<path transform="translate(1572,1147)" d="m0 0h20v2l-13 4-20 4-16 2-13 2-6 1-16 1h-52v-2l28-6 37-5 19-2z" fill="#2A2225"/>
<path transform="translate(296,1210)" d="m0 0 61 3 43 4 17 2 11 3 13 2 1 2-5 1h-33l-37-3-35-4-31-5-8-2v-2z" fill="#242223"/>
<path transform="translate(401,1263)" d="m0 0h31l1 3-20 4-42 5-45 3h-17l-2-1v-2l26-5 10-2 37-4z" fill="#222323"/>
<path transform="translate(683,1068)" d="m0 0h12l7 4 3 5v5l-5 6-7 3h-12l-5-3-4-6 1-8 5-5z" fill="#FAF0F3"/>
<path transform="translate(1212,1068)" d="m0 0h13l6 5 2 4v6l-4 5-8 4-9-1-6-4-4-5v-6l5-5z" fill="#F9F1F3"/>
<path transform="translate(1503,1209)" d="m0 0h10l3 1-1 5-10 18-7 11h-8l-5-1v-1h8l-5-3 1-6 13-18 3-5z" fill="#E1DADD"/>
<path transform="translate(398,1182)" d="m0 0 9 1 6 1-4 2 3 5v2l3 1 8 14 5 10v3l6 1v1h-6l-11-3-16-30-3-5z" fill="#E1D5DA"/>
<path transform="translate(1530,1160)" d="m0 0h9l-1 4-7 17-8 18-1 1h-20v-1l9-1 4-4 14-29 4-2-9-1v-1z" fill="#E4D4D9"/>
<path transform="translate(398,1182)" d="m0 0 5 2v2l4 2 1 3h-2l-1 4-3-3-4-7z" fill="#F9EDF1"/>
<path transform="translate(400,1182)" d="m0 0 13 2-4 2 3 5-1 2-2-4-6-2-1-3z" fill="#E7BECC"/>
<path transform="translate(415,1212)" d="m0 0 6 3 5 3v2l-9-1-2-3z" fill="#F9F2F4"/>
<path transform="translate(1499,1238)" d="m0 0h2l-2 5-1 1h-8l-5-1v-1h10z" fill="#EDBBCC"/>
<path transform="translate(398,1182)" d="m0 0 5 2-1 3 3 1-4 2-3-5z" fill="#F3D8E1"/>
</svg>
